<?xml version="1.0" encoding="UTF-8" standalone="no"?>
<svg
   width="128"
   height="128"
   viewBox="0 0 33.866666 33.866668"
   version="1.1"
   id="svg8">
  <defs
     id="defs2" />
  <g
     id="layer1">
    <g
       id="g855"
       transform="matrix(6.8558595,0,0,6.8547919,-93.717829,-100.95504)"
       style="stroke-width:0.145872;fill:#000000;fill-opacity:0.5">
      <path
         id="rect841-6"
         style="color:#000000;font-style:normal;font-variant:normal;font-weight:normal;font-stretch:normal;font-size:medium;line-height:normal;font-family:sans-serif;font-variant-ligatures:normal;font-variant-position:normal;font-variant-caps:normal;font-variant-numeric:normal;font-variant-alternates:normal;font-feature-settings:normal;text-indent:0;text-align:start;text-decoration:none;text-decoration-line:none;text-decoration-style:solid;text-decoration-color:#000000;letter-spacing:normal;word-spacing:normal;text-transform:none;writing-mode:lr-tb;direction:ltr;text-orientation:mixed;dominant-baseline:auto;baseline-shift:baseline;text-anchor:start;white-space:normal;shape-padding:0;clip-rule:nonzero;display:inline;overflow:visible;visibility:visible;opacity:1;isolation:auto;mix-blend-mode:normal;color-interpolation:sRGB;color-interpolation-filters:linearRGB;solid-color:#000000;solid-opacity:1;vector-effect:none;fill:#000000;fill-opacity:0.5;fill-rule:nonzero;stroke:none;stroke-width:0.0385953;stroke-linecap:round;stroke-linejoin:round;stroke-miterlimit:4;stroke-dasharray:none;stroke-dashoffset:0;stroke-opacity:1;color-rendering:auto;image-rendering:auto;shape-rendering:auto;text-rendering:auto;enable-background:accumulate"
         d="m 15.610417,16.139584 c -0.265508,0 -0.505815,0.102097 -0.691948,0.264583 H 14.419792 A 0.1323049,0.1323049 0 0 0 14.2875,16.536459 v 1.322916 a 0.1323049,0.1323049 0 0 0 0.132292,0.132292 h 0.364835 l 0.249597,-0.249597 c -0.134065,-0.141993 -0.217557,-0.332417 -0.217557,-0.544153 0,-0.439943 0.353807,-0.79375 0.79375,-0.79375 0.211735,0 0.40216,0.08349 0.544152,0.217558 l 0.217558,-0.217558 h -0.06976 c -0.186133,-0.162486 -0.42644,-0.264583 -0.691947,-0.264583 z m 2.092378,0.05633 -0.472839,0.472839 h 0.364836 a 0.1323049,0.1323049 0 0 1 0.132291,0.132292 v 0.264583 a 0.1323049,0.1323049 0 0 1 -0.132291,0.132292 h -0.529167 a 0.1323049,0.1323049 0 0 1 -0.132292,-0.132292 v -0.100252 l -0.649572,0.649573 c -0.06458,0.104391 -0.151924,0.191739 -0.256316,0.256315 l -0.381372,0.381372 c 0.251017,-0.0089 0.478725,-0.105959 0.656291,-0.260966 h 1.557011 a 0.1323049,0.1323049 0 0 0 0.132292,-0.132292 V 16.536462 A 0.1323049,0.1323049 0 0 0 17.859375,16.40417 h -0.132292 v -0.132292 a 0.1323049,0.1323049 0 0 0 -0.02429,-0.07596 z" />
      <path
         style="color:#000000;font-style:normal;font-variant:normal;font-weight:normal;font-stretch:normal;font-size:medium;line-height:normal;font-family:sans-serif;font-variant-ligatures:normal;font-variant-position:normal;font-variant-caps:normal;font-variant-numeric:normal;font-variant-alternates:normal;font-variant-east-asian:normal;font-feature-settings:normal;font-variation-settings:normal;text-indent:0;text-align:start;text-decoration:none;text-decoration-line:none;text-decoration-style:solid;text-decoration-color:#000000;letter-spacing:normal;word-spacing:normal;text-transform:none;writing-mode:lr-tb;direction:ltr;text-orientation:mixed;dominant-baseline:auto;baseline-shift:baseline;text-anchor:start;white-space:normal;shape-padding:0;shape-margin:0;inline-size:0;clip-rule:nonzero;display:inline;overflow:visible;visibility:visible;opacity:1;isolation:auto;mix-blend-mode:normal;color-interpolation:sRGB;color-interpolation-filters:linearRGB;solid-color:#000000;solid-opacity:1;vector-effect:none;fill:#000000;fill-opacity:0.5;fill-rule:nonzero;stroke:none;stroke-width:0.0385953px;stroke-linecap:round;stroke-linejoin:round;stroke-miterlimit:4;stroke-dasharray:none;stroke-dashoffset:0;stroke-opacity:1;color-rendering:auto;image-rendering:auto;shape-rendering:auto;text-rendering:auto;enable-background:accumulate;stop-color:#000000;stop-opacity:1"
         d="m 17.871094,15.345703 a 0.1322915,0.1322915 0 0 0 -0.105469,0.03906 l -3.439453,3.439453 a 0.1322915,0.1322915 0 0 0 0,0.1875 0.1322915,0.1322915 0 0 0 0.1875,0 l 3.439453,-3.439453 a 0.1322915,0.1322915 0 0 0 0,-0.1875 0.1322915,0.1322915 0 0 0 -0.08203,-0.03906 z"
         id="path859" />
    </g>
  </g>
</svg>
